<?xml version="1.0" encoding="utf-8"?>
<!-- Generator: Adobe Illustrator 25.0.1, SVG Export Plug-In . SVG Version: 6.00 Build 0)  -->
<svg version="1.1" id="Layer_1" xmlns="http://www.w3.org/2000/svg" xmlns:xlink="http://www.w3.org/1999/xlink" x="0px" y="0px"
	 viewBox="0 0 1646 541.4" style="enable-background:new 0 0 1646 541.4;" xml:space="preserve">
<style type="text/css">
	.st0{opacity:0.5;}
	.st1{fill:none;stroke:#231F20;stroke-width:4;stroke-miterlimit:10;}
	.st2{fill:none;stroke:#231F20;stroke-width:4;stroke-miterlimit:10;stroke-dasharray:19.9465,14.9598;}
</style>
<g class="st0">
	<g>
		<path class="st1" d="M1,5.2c0,0,3.4,0,10,0"/>
		<path class="st2" d="M26,5.2c182,0,1298.4,0,1309.7,0c12.3,0,17.8,4.1,17.8,23.1s0,207.6,0,223.9s-8.2,21.7-26.1,21.7
			s-1124.6,0-1139.7,0c-15.1,0-12.3,8.1-12.3,17.6s0,215.8,0,223.9s6.9,21.6,20.6,21.6c12.8,0,1267.1,0,1430.5,0"/>
		<path class="st1" d="M1634,537.1c6.6,0,10,0,10,0"/>
	</g>
</g>
</svg>
